<svg xmlns="http://www.w3.org/2000/svg" viewBox="0 0 64 64"><title>星河音乐</title><rect x="1" y="1" width="62" height="62" rx="19" fill="#263f58"/><path d="M10 39C8 28 22 17 37 17c12 0 20 5 19 13" fill="none" stroke="#9bcbf7" stroke-width="2.5" stroke-linecap="round"/><path d="M54 32c-3 9-15 17-28 17-7 0-12-2-15-6" fill="none" stroke="#9bcbf7" stroke-width="2.5" stroke-linecap="round"/><path d="M33 21v22" fill="none" stroke="#edf7ff" stroke-width="3.5" stroke-linecap="round"/><path d="M33 22c1 3 9 4 10 9" fill="none" stroke="#edf7ff" stroke-width="3.5" stroke-linecap="round"/><ellipse cx="27.5" cy="43" rx="5.5" ry="4.1" transform="rotate(-18 27.5 43)" fill="#edf7ff"/><path d="m49 12 1.5 4.5L55 18l-4.5 1.5L49 24l-1.5-4.5L43 18l4.5-1.5z" fill="#c9e6ff"/><circle cx="15" cy="43" r="2.5" fill="#c9e6ff"/></svg>
